# 3ds Max Wavefront OBJ Exporter v0.97b - (c)2007 guruware
# File Created: 31.12.2014 13:33:52

mtllib New_Stage_01_02_T.mtl

#
# object default
#

v  0.0000 0.0000 -0.0000
v  -38.8257 0.0000 38.8257
v  0.0000 0.0000 38.8257
v  -38.8257 0.0000 -0.0000
# 4 vertices

vn 0.0000 1.0000 -0.0000
# 1 vertex normals

vt 0.0000 0.0000 0.0000
vt 0.9706 0.9706 0.0000
vt 0.0000 0.9706 0.0000
vt 0.9706 0.0000 0.0000
# 4 texture coords

g default
usemtl default
s 1
f 1/1/1 2/2/1 3/3/1 
f 2/2/1 1/1/1 4/4/1 
# 0 polygons - 2 triangles

